/* XPM */
static char *_d67dc5823484e35d7d4028fa435a0b5kXjQYk836dqlshzf[] = {
/* columns rows colors chars-per-pixel */
"32 32 15 1 ",
"  c None",
". c black",
"X c #161616",
"o c #1A1F2F",
"O c #2D2D2D",
"+ c #3F3F3F",
"@ c #414141",
"# c gray34",
"$ c #5D5D5D",
"% c gray47",
"& c gray48",
"* c #880B11",
"= c #C7101A",
"- c #ED1C24",
"; c #B2B2B2",
/* pixels */
"            +++oooo             ",
"          +++#####++oo          ",
"        o+##%%%%%%%%#+o         ",
"       o@#%%%%%%%%%%%#+o        ",
"      o+#%%%##@@@###%%#+o       ",
"      o#%###@$;;;$@@@##+o       ",
"     o+%###$;;&o@;%$+++++o      ",
"     o+%@#$;$o&.@o$%$++o+o      ",
"     o#+#$;$&.&.@.$@%$+o+o      ",
"     o#o@;$%&.&o@.$@@%@ooo      ",
"     o.$$o@$&o%o@o$@@o$$.o      ",
"     o.@@..@$&&$@$@@..@@.o      ",
"     ooo@.*..ooooo..*.@ooo      ",
"     oX.o.*==#####==*.o.Xo      ",
"      ..oo*--@XXX@--*oo..       ",
"       .@o*-@;;;;&@-*o@.        ",
"       .o@%X;&%.@$&X$@o.        ",
"      X+o@$X$.&.@.@X$@o+X       ",
"    o+++@o@X$o%.@o@X@o+##X      ",
"   o##X+XO@Xo$$@@@oXoO+##+X     ",
"   +%%#+oX@O+oooooO+oXX#%%+     ",
"   oOXo+o.+X######X+o.XO+#%o    ",
"   XooXXoXXo++++@@+X.X+oO+#o    ",
"   o++o. .XXooooooXXo%#+Xo+o    ",
"   o##+. .o+XXOOOXXoo##+Xoo     ",
"   .#+o  ooo++#%%#+o.o+o.       ",
"    ...  .+#%oo+#+ooo...        ",
"          o++#%o.ooo            ",
"           o+++o.o+.            ",
"           .o+o....             ",
"            .%#.                ",
"                                "
};
