/* XPM */
static char *ed2a71e9fb0745f9dac2c0522f8d8d37mnljpr0bnki17nG6[] = {
/* columns rows colors chars-per-pixel */
"32 32 4 1 ",
"  c None",
". c #BF4830",
"X c #FDAE35",
"o c #FFD943",
/* pixels */
"                                ",
"                                ",
"                                ",
"            XXXXXXX..           ",
"          XX.XXXXXXXX..         ",
"         X.XXXXXXXXXXX..        ",
"        X.XXXXXXXXXXooX..       ",
"       X.XXXXXXXXXXooooX..      ",
"       X.XXXXX.X.XooooXX..      ",
"       X.XXXXX.X.ooooXXX..      ",
"      X.XXXX.......oXXXXX..     ",
"      X.XXXXX.......XXXXX..     ",
"      X.XXXXX..oo...XXXXX..     ",
"      X.XXXXX..oo...XXXXX..     ",
"      X.XXXXo......XXXXXX..     ",
"      X.XXXoo......XXXXXX..     ",
"      X.XXooo..XX...XXXXX..     ",
"      X.Xoooo..XX...XXXXX..     ",
"      X.XoooX.......XXXXX..     ",
"      X.XooX.......XXXXXX..     ",
"       X.XXXXX.X.XXXXXXX..      ",
"       X.XXXXX.X.XXXXXXX..      ",
"       X.XXXXXXXXXXXXXXX..      ",
"        X.XXXXXXXXXXXXX..       ",
"         X.XXXXXXXXXXX..        ",
"          XX.XXXXXXXX..         ",
"            XXXXXXX..           ",
"                                ",
"                                ",
"                                ",
"                                ",
"                                "
};
