/* XPM */
static char *dfefc3eb81e246f0ddd8aee916bbe4c1t2ekS6s8WSV2w9z4[] = {
/* columns rows colors chars-per-pixel */
"32 32 5 1 ",
"  c None",
". c #171523",
"X c #252B43",
"o c #3A4467",
"O c #5B6986",
/* pixels */
"                                ",
"                                ",
"                                ",
"                                ",
"                                ",
"                                ",
"                                ",
"                                ",
"               OO               ",
"             OOOXOO             ",
"           XXOOOXOOOO           ",
"         XXXXXXOOOOOOOO         ",
"       XXXXXXXXOOOOOOOOOO       ",
"     XXXXXXXXXXXXXXOOOOOOOO     ",
"   XXXXXXXXXXXXXXXXXXOOOOOOOO   ",
" ooXXXXXXXXXXXXXXXXXXXXOOOXXXOO ",
" ..ooXXXXXXXXXXXXXXXXXXXXOOOOOOO",
"   ..ooXXXXXXXXXXXXXXXXXXXXOOOO.",
"     ..ooXXXXXXXXXXXXXXXXXXXX.. ",
"       ..ooXXXXXXXXXXXXXXXX..   ",
"         ..ooXXXXXXXXXXXX..     ",
"           ..ooXXXXXXXX..       ",
"             ..ooXXXX..         ",
"               ..oo..       .   ",
"                 ..        .    ",
"                          .     ",
"                         .      ",
"                        .       ",
"                       .        ",
"                      .         ",
"                     .          ",
"                                "
};
