/* XPM */
static char *_e0dd30e9b2d46aa9e23d436c419e14cuXFvwvPR6MQucj40[] = {
/* columns rows colors chars-per-pixel */
"32 32 16 1 ",
"  c None",
". c black",
"X c gray8",
"o c #161616",
"O c #1A1F2F",
"+ c #2D2D2D",
"@ c #3F3F3F",
"# c #414141",
"$ c gray34",
"% c #5D5D5D",
"& c gray47",
"* c gray48",
"= c #880B11",
"- c #C7101A",
"; c #ED1C24",
": c #B2B2B2",
/* pixels */
"                                ",
"           @@@@@OOOOO           ",
"         @@$$&&&&*$@@OO         ",
"        @$&**&&$$$$$$$@O        ",
"       @%*%#&&&&&$$$$$$@O       ",
"       %::**#&&*&&&$$$$$O       ",
"      O:O*#%*#$@@$&&$@$$@O      ",
"      O:.*.#%*##$@@$$@@$@O      ",
"      O*.%.O##**OO@@$$@@@@O     ",
"      O%.%.O###%*%OO@$@@@@O     ",
"      .%O#O#######%%.@@@@@O     ",
"       .###...O#####.O@@@@O     ",
"       ......=.O###O.@@@@O      ",
"       .$$$--=.OOO.O@@O@@O      ",
"       .$$$;;=.%OO.XO@O@O       ",
"       *::*O;#%#OO.XXOOOO       ",
"      O:.%%*X%##OO.OOXO#        ",
"      O*.%.%X###OO.OOOO         ",
"       ..%O%o##OO.XXX           ",
"        ..OOoO...+oX.           ",
"          OOOOX#+o$@.           ",
"          O#$@+OX#&*@.          ",
"          O$$OOX$O#$@.          ",
"          O#O@$+#$O@X.          ",
"          O@$**+O@OX.O.         ",
"           O@&$O+#O.O@.         ",
"           O...OXO.OO@O         ",
"           OOO....O$@O.         ",
"           @$@O.O$$#OO.         ",
"           O@OOO.OOOOO          ",
"          O@$@O  ..O@@          ",
"                .O@$OO          "
};
