/* XPM */
static char *fed3df5014d14785f1938e83133b18a3gJFpWiNgiVqG9SZy[] = {
/* columns rows colors chars-per-pixel */
"32 32 15 1 ",
"  c None",
". c black",
"X c #161616",
"o c #1A1F2F",
"O c #2D2D2D",
"+ c #3F3F3F",
"@ c #414141",
"# c gray34",
"$ c #5D5D5D",
"% c gray47",
"& c gray48",
"* c #880B11",
"= c #C7101A",
"- c #ED1C24",
"; c #B2B2B2",
/* pixels */
"          +++#####++oo          ",
"        o+##%%%%%%%%#+o         ",
"       o@#%%%%%%%%%%%#+o        ",
"      o+#%%%##@@@###%%#+o       ",
"      o#%###@$;;;$@@@##+o       ",
"     o+%###$;;&o@;%$+++++o      ",
"     o+%@#$;$o&.@o$%$@+o+o      ",
"     o#+#$;$&.&.@.$@%$+o+o      ",
"     o#o@;$%&.&o@.$@@%@ooo      ",
"     o.$$o@$&o&o@o$@@o$$.o      ",
"     o.@@..@$&&$@$@@..@@.o      ",
"     ooo@.*..ooooo..*.@ooo      ",
"     oX.o.*==#####==*.o.Xo      ",
"      ..oo*--@XXX@--*oo..       ",
"       .@o*-@;;;;&@-*o@.        ",
"       .o@%X;&&.@$%X$@o.        ",
"      X+o@$X$.%.@.@X$@o+X       ",
"    oX+%#o@X$o%.@o@X@o#%+Xo     ",
"   o#%##@XoXo$$@@@oooX+##%#o    ",
"  o#+oooXXoO@ooooo@OoXXooo+#o   ",
"  o#oOOXoX+O#######O+XoXOOo#o   ",
"  .oOXooX.Xo+++++@+oX.XooXOo.   ",
"   .Xo%#o.XoooooooooX.o#%oX.    ",
"    .+##o.XXXOOOOOXXX.o##+..    ",
"    .o++..oo+#%%%#+oo..++o.     ",
"     ... ..oo+###+oo.. ...      ",
"         o+#ooo.ooo#+o          ",
"         .o+%#o.o#%+o.          ",
"         .oooo...oooo.          ",
"          .+%+. .+%+.           ",
"          .ooo. .ooo.           ",
"          +++++ooooo            "
};
