/* XPM */
static char *aa09caf038e045ab86acdbf7c3ef5e128ZVjQIsDyxGo2d7z[] = {
/* columns rows colors chars-per-pixel */
"32 32 16 1 ",
"  c None",
". c black",
"X c gray8",
"o c #161616",
"O c #1A1F2F",
"+ c #2D2D2D",
"@ c #3F3F3F",
"# c #414141",
"$ c gray34",
"% c #5D5D5D",
"& c gray47",
"* c gray48",
"= c #880B11",
"- c #C7101A",
"; c #ED1C24",
": c #B2B2B2",
/* pixels */
"                                ",
"           OOOOO@@@@@           ",
"         OO@@$*&&&*$$@@         ",
"        O@$$$$$$$&&&&*$@        ",
"       O@$$$$$$&&&&&#%*%@       ",
"       O$$$$$&&*&&&#**::%       ",
"      O@$$@$&&$@@$#*%#*O:O      ",
"      O@$@@$$@@$##*%#.*.:O      ",
"     O@@@@$$#@OO**##O.%.*O      ",
"     O@@@@$@OO%*%###O.%.%O      ",
"     O@@@@@.%%#######O#O%.      ",
"     O@@@@O.#####O...###.       ",
"      O@@@@.O###O.=......       ",
"      O@@O@@O.OOO.=--$$$.       ",
"       O@O@OX.OO%.=;;$$$.       ",
"       OOOOXX.OO#%#;O*::*       ",
"        #OXOO.OO##%X*%%.:O      ",
"          OOO.OO###X%.%.*O      ",
"           XXX.OO##o%O%..       ",
"           .oX+...OOOO..        ",
"           .@$X+#XOOOO          ",
"          .#&*@XO+#$@O          ",
"          .@$@O$oOO$$O          ",
"          .X@O$@+$#O@O          ",
"         .O.XO#O+&*$@O          ",
"         .@O.O#+O$&@O           ",
"         O@OO.OXO...O           ",
"         .O@$O....OOO           ",
"         .OO@$$O.O@$@           ",
"          OOOOO.OOO@O           ",
"          @@O..  O@$@O          ",
"          OO$@O.                "
};
