/* XPM */
static char *_054e2ce272b41588a8529f6bf4a3700rmY2jaSAuhRcfzjf[] = {
/* columns rows colors chars-per-pixel */
"32 32 13 1 ",
"  c None",
". c black",
"X c #040404",
"o c #15100D",
"O c #161616",
"+ c gray10",
"@ c #1A1F2F",
"# c #2D2D2D",
"$ c #313131",
"% c #3F3F3F",
"& c #4B4B4B",
"* c gray34",
"= c gray47",
/* pixels */
"           %%%%%%%%%            ",
"         %%*********%%          ",
"        %**========***%         ",
"       @*===========***@        ",
"      @%=============**%@       ",
"      @*=============***@       ",
"     @%===*=========****%@      ",
"     @*===**=======*****%@      ",
"     @=*==**************%@      ",
"     @=%==*************%%@      ",
"     @*%==*************%%@      ",
"     @%%*==%*******%***%%@      ",
"     @%%%*=%******%%**%%%@      ",
"      @%%***%*****%***%%@@      ",
"      @%%%**%%***%%**%%%@       ",
"       @%%%**@%%%@**%%%@        ",
"        @%%%%@@@%@%%%%@         ",
"       O%@+$&$ooooXo+@O         ",
"      O%*%o$&&&=&&&$$%%O        ",
"     O%*%%+$&&&&&&&&+%*O        ",
"    @@O%O%o+$&@&%&&$o%%@@       ",
"    @@%%@%+o++$$$++oo%O@@@      ",
"     O@@..%O@@@@OOO.%@@%O@      ",
"     @O#O@@@####O@@.%%%#@.      ",
"      @@@.%*=*%@%*%@O##@@       ",
"       ...@%%@..@%@@.@@@.       ",
"          .@**%.@@@@...         ",
"          .%%@@%.@@.            ",
"           .@**%...             ",
"            .%@@.               ",
"            .@@@.               ",
"                                "
};
