/* XPM */
static char *_da4fa36344546ddcb2c37a15cc1a7dacWTb7A72LyuGK8cv[] = {
/* columns rows colors chars-per-pixel */
"33 32 6 1 ",
"  c None",
". c #733D3B",
"X c #BF4830",
"o c #C28569",
"O c #5B6986",
"+ c #8B9BB5",
/* pixels */
"ooooooo+oooooooooooooooo+ooooooo ",
"XXXXXXo+.XXXXXXXXXXXXXXo+.XXXXXX ",
"XXXXXXo+.XXXXXXXXXXXXXXo+.XXXXXX ",
"XXXXXXo+.XXXXXXXXXXXXXXo+.XXXXXX ",
"XXXXXXo+.XXXXXXXXXXXXXXo+.XXXXXX ",
"XXXXXXo+.XXXXXXXXXXXXXXo+.XXXXXX ",
"......o+...............o+....... ",
"OOOOOOO+OOOOOOOOOOOOOOOO+OOOOOOO ",
"oooooooooooo+ooooooooooooooo+ooo ",
"XXXXXXXXXXXo+.XXXXXXXXXXXXXo+.XX ",
"XXXXXXXXXXXo+.XXXXXXXXXXXXXo+.XX ",
"XXXXXXXXXXXo+.XXXXXXXXXXXXXo+.XX ",
"XXXXXXXXXXXo+.XXXXXXXXXXXXXo+.XX ",
"XXXXXXXXXXXo+.XXXXXXXXXXXXXo+.XX ",
"...........o+..............o+... ",
"OOOOOOOOOOOO+OOOOOOOOOOOOOOO+OOO ",
"oo+ooooooooooooooo+ooooooooooooo ",
"Xo+.XXXXXXXXXXXXXo+.XXXXXXXXXXXX ",
"Xo+.XXXXXXXXXXXXXo+.XXXXXXXXXXXX ",
"Xo+.XXXXXXXXXXXXXo+.XXXXXXXXXXXX ",
"Xo+.XXXXXXXXXXXXXo+.XXXXXXXXXXXX ",
"Xo+.XXXXXXXXXXXXXo+.XXXXXXXXXXXX ",
".o+...............+............. ",
"OO+OOOOOOOOOOOOOOO+OOOOOOOOOOOOO ",
"oooooooooo+ooooooooooooooo+ooooo ",
"XXXXXXXXXo+.XXXXXXXXXXXXXo+.XXXX ",
"XXXXXXXXXo+.XXXXXXXXXXXXXo+.XXXX ",
"XXXXXXXXXo+.XXXXXXXXXXXXXo+.XXXX ",
"XXXXXXXXXo+.XXXXXXXXXXXXXo+.XXXX ",
"XXXXXXXXXo+.XXXXXXXXXXXXXo+.XXXX ",
".........o+..............o+..... ",
"OOOOOOOOOO+OOOOOOOOOOOOOOO+OOOOO "
};
